<?xml version="1.0" encoding="UTF-8" standalone="no"?>
<!DOCTYPE svg PUBLIC "-//W3C//DTD SVG 1.1//EN"
 "http://www.w3.org/Graphics/SVG/1.1/DTD/svg11.dtd">
<!-- Generated by graphviz version 2.40.1 (20161225.0304)
 -->
<!-- Title: %3 Pages: 1 -->
<svg width="2121pt" height="476pt"
 viewBox="0.00 0.00 2121.13 476.00" xmlns="http://www.w3.org/2000/svg" xmlns:xlink="http://www.w3.org/1999/xlink">
<g id="graph0" class="graph" transform="scale(1 1) rotate(0) translate(4 472)">
<title>%3</title>
<polygon fill="#ffffff" stroke="transparent" points="-4,4 -4,-472 2117.1299,-472 2117.1299,4 -4,4"/>
<!-- [root] aws_internet_gateway.SimpleIGW -->
<g id="node1" class="node">
<title>[root] aws_internet_gateway.SimpleIGW</title>
<polygon fill="none" stroke="#000000" points="656.5429,-180 444.7042,-180 444.7042,-144 656.5429,-144 656.5429,-180"/>
<text text-anchor="middle" x="550.6235" y="-157.8" font-family="Times,serif" font-size="14.00" fill="#000000">aws_internet_gateway.SimpleIGW</text>
</g>
<!-- [root] aws_vpc.SimpleVPC -->
<g id="node11" class="node">
<title>[root] aws_vpc.SimpleVPC</title>
<polygon fill="none" stroke="#000000" points="720.5137,-108 584.7333,-108 584.7333,-72 720.5137,-72 720.5137,-108"/>
<text text-anchor="middle" x="652.6235" y="-85.8" font-family="Times,serif" font-size="14.00" fill="#000000">aws_vpc.SimpleVPC</text>
</g>
<!-- [root] aws_internet_gateway.SimpleIGW&#45;&gt;[root] aws_vpc.SimpleVPC -->
<g id="edge1" class="edge">
<title>[root] aws_internet_gateway.SimpleIGW&#45;&gt;[root] aws_vpc.SimpleVPC</title>
<path fill="none" stroke="#000000" d="M576.3624,-143.8314C589.1673,-134.7927 604.8144,-123.7476 618.5955,-114.0198"/>
<polygon fill="#000000" stroke="#000000" points="620.7416,-116.7891 626.8929,-108.1628 616.7048,-111.0703 620.7416,-116.7891"/>
</g>
<!-- [root] aws_network_acl.SimpleNACL -->
<g id="node2" class="node">
<title>[root] aws_network_acl.SimpleNACL</title>
<polygon fill="none" stroke="#000000" points="1118.3688,-252 922.8783,-252 922.8783,-216 1118.3688,-216 1118.3688,-252"/>
<text text-anchor="middle" x="1020.6235" y="-229.8" font-family="Times,serif" font-size="14.00" fill="#000000">aws_network_acl.SimpleNACL</text>
</g>
<!-- [root] aws_subnet.SimpleSubnet -->
<g id="node10" class="node">
<title>[root] aws_subnet.SimpleSubnet</title>
<polygon fill="none" stroke="#000000" points="1014.5068,-180 850.7403,-180 850.7403,-144 1014.5068,-144 1014.5068,-180"/>
<text text-anchor="middle" x="932.6235" y="-157.8" font-family="Times,serif" font-size="14.00" fill="#000000">aws_subnet.SimpleSubnet</text>
</g>
<!-- [root] aws_network_acl.SimpleNACL&#45;&gt;[root] aws_subnet.SimpleSubnet -->
<g id="edge2" class="edge">
<title>[root] aws_network_acl.SimpleNACL&#45;&gt;[root] aws_subnet.SimpleSubnet</title>
<path fill="none" stroke="#000000" d="M998.4174,-215.8314C987.5786,-206.9632 974.3792,-196.1637 962.6558,-186.5718"/>
<polygon fill="#000000" stroke="#000000" points="964.7785,-183.7864 954.8225,-180.1628 960.3458,-189.2041 964.7785,-183.7864"/>
</g>
<!-- [root] aws_network_acl_rule.SimpleNACLEgressHTTP -->
<g id="node3" class="node">
<title>[root] aws_network_acl_rule.SimpleNACLEgressHTTP</title>
<polygon fill="none" stroke="#000000" points="1479.9587,-324 1183.2884,-324 1183.2884,-288 1479.9587,-288 1479.9587,-324"/>
<text text-anchor="middle" x="1331.6235" y="-301.8" font-family="Times,serif" font-size="14.00" fill="#000000">aws_network_acl_rule.SimpleNACLEgressHTTP</text>
</g>
<!-- [root] aws_network_acl_rule.SimpleNACLEgressHTTP&#45;&gt;[root] aws_network_acl.SimpleNACL -->
<g id="edge3" class="edge">
<title>[root] aws_network_acl_rule.SimpleNACLEgressHTTP&#45;&gt;[root] aws_network_acl.SimpleNACL</title>
<path fill="none" stroke="#000000" d="M1253.5465,-287.9243C1209.376,-277.6983 1154.0157,-264.8818 1108.3502,-254.3097"/>
<polygon fill="#000000" stroke="#000000" points="1108.9946,-250.8664 1098.4629,-252.0207 1107.4158,-257.686 1108.9946,-250.8664"/>
</g>
<!-- [root] aws_network_acl_rule.SimpleNACLEgressHTTPS -->
<g id="node4" class="node">
<title>[root] aws_network_acl_rule.SimpleNACLEgressHTTPS</title>
<polygon fill="none" stroke="#000000" points="1801.7447,-324 1497.5024,-324 1497.5024,-288 1801.7447,-288 1801.7447,-324"/>
<text text-anchor="middle" x="1649.6235" y="-301.8" font-family="Times,serif" font-size="14.00" fill="#000000">aws_network_acl_rule.SimpleNACLEgressHTTPS</text>
</g>
<!-- [root] aws_network_acl_rule.SimpleNACLEgressHTTPS&#45;&gt;[root] aws_network_acl.SimpleNACL -->
<g id="edge4" class="edge">
<title>[root] aws_network_acl_rule.SimpleNACLEgressHTTPS&#45;&gt;[root] aws_network_acl.SimpleNACL</title>
<path fill="none" stroke="#000000" d="M1497.3602,-288.5708C1383.3557,-275.521 1230.1848,-257.9879 1128.5782,-246.3573"/>
<polygon fill="#000000" stroke="#000000" points="1128.9358,-242.8755 1118.6026,-245.2154 1128.1397,-249.83 1128.9358,-242.8755"/>
</g>
<!-- [root] aws_network_acl_rule.SimpleNACLEgressTemp -->
<g id="node5" class="node">
<title>[root] aws_network_acl_rule.SimpleNACLEgressTemp</title>
<polygon fill="none" stroke="#000000" points="2113.1362,-324 1820.1108,-324 1820.1108,-288 2113.1362,-288 2113.1362,-324"/>
<text text-anchor="middle" x="1966.6235" y="-301.8" font-family="Times,serif" font-size="14.00" fill="#000000">aws_network_acl_rule.SimpleNACLEgressTemp</text>
</g>
<!-- [root] aws_network_acl_rule.SimpleNACLEgressTemp&#45;&gt;[root] aws_network_acl.SimpleNACL -->
<g id="edge5" class="edge">
<title>[root] aws_network_acl_rule.SimpleNACLEgressTemp&#45;&gt;[root] aws_network_acl.SimpleNACL</title>
<path fill="none" stroke="#000000" d="M1820.0834,-288.8902C1816.9021,-288.5839 1813.7456,-288.2867 1810.6235,-288 1567.2346,-265.6522 1280.8769,-248.2999 1128.6245,-239.7832"/>
<polygon fill="#000000" stroke="#000000" points="1128.5235,-236.2722 1118.3442,-239.2102 1128.1338,-243.2614 1128.5235,-236.2722"/>
</g>
<!-- [root] aws_network_acl_rule.SimpleNACLIngressHTTP -->
<g id="node6" class="node">
<title>[root] aws_network_acl_rule.SimpleNACLIngressHTTP</title>
<polygon fill="none" stroke="#000000" points="532.5692,-324 232.6779,-324 232.6779,-288 532.5692,-288 532.5692,-324"/>
<text text-anchor="middle" x="382.6235" y="-301.8" font-family="Times,serif" font-size="14.00" fill="#000000">aws_network_acl_rule.SimpleNACLIngressHTTP</text>
</g>
<!-- [root] aws_network_acl_rule.SimpleNACLIngressHTTP&#45;&gt;[root] aws_network_acl.SimpleNACL -->
<g id="edge6" class="edge">
<title>[root] aws_network_acl_rule.SimpleNACLIngressHTTP&#45;&gt;[root] aws_network_acl.SimpleNACL</title>
<path fill="none" stroke="#000000" d="M532.7381,-288.8932C535.3872,-288.593 538.0174,-288.295 540.6235,-288 668.3834,-273.5361 815.2864,-257.0275 912.5737,-246.1117"/>
<polygon fill="#000000" stroke="#000000" points="913.1656,-249.5673 922.713,-244.9742 912.3851,-242.611 913.1656,-249.5673"/>
</g>
<!-- [root] aws_network_acl_rule.SimpleNACLIngressHTTPS -->
<g id="node7" class="node">
<title>[root] aws_network_acl_rule.SimpleNACLIngressHTTPS</title>
<polygon fill="none" stroke="#000000" points="857.3551,-324 549.892,-324 549.892,-288 857.3551,-288 857.3551,-324"/>
<text text-anchor="middle" x="703.6235" y="-301.8" font-family="Times,serif" font-size="14.00" fill="#000000">aws_network_acl_rule.SimpleNACLIngressHTTPS</text>
</g>
<!-- [root] aws_network_acl_rule.SimpleNACLIngressHTTPS&#45;&gt;[root] aws_network_acl.SimpleNACL -->
<g id="edge7" class="edge">
<title>[root] aws_network_acl_rule.SimpleNACLIngressHTTPS&#45;&gt;[root] aws_network_acl.SimpleNACL</title>
<path fill="none" stroke="#000000" d="M783.2068,-287.9243C828.324,-277.6769 884.8946,-264.828 931.497,-254.2432"/>
<polygon fill="#000000" stroke="#000000" points="932.3061,-257.6487 941.2825,-252.0207 930.7556,-250.8226 932.3061,-257.6487"/>
</g>
<!-- [root] aws_network_acl_rule.SimpleNACLIngressSSH -->
<g id="node8" class="node">
<title>[root] aws_network_acl_rule.SimpleNACLIngressSSH</title>
<polygon fill="none" stroke="#000000" points="1165.7515,-324 875.4956,-324 875.4956,-288 1165.7515,-288 1165.7515,-324"/>
<text text-anchor="middle" x="1020.6235" y="-301.8" font-family="Times,serif" font-size="14.00" fill="#000000">aws_network_acl_rule.SimpleNACLIngressSSH</text>
</g>
<!-- [root] aws_network_acl_rule.SimpleNACLIngressSSH&#45;&gt;[root] aws_network_acl.SimpleNACL -->
<g id="edge8" class="edge">
<title>[root] aws_network_acl_rule.SimpleNACLIngressSSH&#45;&gt;[root] aws_network_acl.SimpleNACL</title>
<path fill="none" stroke="#000000" d="M1020.6235,-287.8314C1020.6235,-280.131 1020.6235,-270.9743 1020.6235,-262.4166"/>
<polygon fill="#000000" stroke="#000000" points="1024.1236,-262.4132 1020.6235,-252.4133 1017.1236,-262.4133 1024.1236,-262.4132"/>
</g>
<!-- [root] aws_route_table.SimpleRouteTable -->
<g id="node9" class="node">
<title>[root] aws_route_table.SimpleRouteTable</title>
<polygon fill="none" stroke="#000000" points="215.3707,-324 -.1237,-324 -.1237,-288 215.3707,-288 215.3707,-324"/>
<text text-anchor="middle" x="107.6235" y="-301.8" font-family="Times,serif" font-size="14.00" fill="#000000">aws_route_table.SimpleRouteTable</text>
</g>
<!-- [root] aws_route_table.SimpleRouteTable&#45;&gt;[root] aws_internet_gateway.SimpleIGW -->
<g id="edge9" class="edge">
<title>[root] aws_route_table.SimpleRouteTable&#45;&gt;[root] aws_internet_gateway.SimpleIGW</title>
<path fill="none" stroke="#000000" d="M163.2812,-287.9081C245.3726,-261.2238 398.5752,-211.4243 485.6831,-183.1093"/>
<polygon fill="#000000" stroke="#000000" points="486.7653,-186.4379 495.1935,-180.0179 484.6013,-179.7807 486.7653,-186.4379"/>
</g>
<!-- [root] aws_subnet.SimpleSubnet&#45;&gt;[root] aws_vpc.SimpleVPC -->
<g id="edge10" class="edge">
<title>[root] aws_subnet.SimpleSubnet&#45;&gt;[root] aws_vpc.SimpleVPC</title>
<path fill="none" stroke="#000000" d="M862.3291,-143.9243C822.1367,-133.5891 771.6535,-120.6077 730.2913,-109.9717"/>
<polygon fill="#000000" stroke="#000000" points="731.0859,-106.5622 720.5293,-107.4615 729.3426,-113.3417 731.0859,-106.5622"/>
</g>
<!-- [root] provider.aws -->
<g id="node12" class="node">
<title>[root] provider.aws</title>
<polygon fill="none" stroke="#000000" points="652.6235,-36 574.0152,-18 652.6235,0 731.2319,-18 652.6235,-36"/>
<text text-anchor="middle" x="652.6235" y="-13.8" font-family="Times,serif" font-size="14.00" fill="#000000">provider.aws</text>
</g>
<!-- [root] aws_vpc.SimpleVPC&#45;&gt;[root] provider.aws -->
<g id="edge11" class="edge">
<title>[root] aws_vpc.SimpleVPC&#45;&gt;[root] provider.aws</title>
<path fill="none" stroke="#000000" d="M652.6235,-71.8314C652.6235,-64.131 652.6235,-54.9743 652.6235,-46.4166"/>
<polygon fill="#000000" stroke="#000000" points="656.1236,-46.4132 652.6235,-36.4133 649.1236,-46.4133 656.1236,-46.4132"/>
</g>
<!-- [root] meta.count&#45;boundary (count boundary fixup) -->
<g id="node13" class="node">
<title>[root] meta.count&#45;boundary (count boundary fixup)</title>
<ellipse fill="none" stroke="#000000" cx="861.6235" cy="-378" rx="191.6931" ry="18"/>
<text text-anchor="middle" x="861.6235" y="-373.8" font-family="Times,serif" font-size="14.00" fill="#000000">[root] meta.count&#45;boundary (count boundary fixup)</text>
</g>
<!-- [root] meta.count&#45;boundary (count boundary fixup)&#45;&gt;[root] aws_network_acl_rule.SimpleNACLEgressHTTP -->
<g id="edge12" class="edge">
<title>[root] meta.count&#45;boundary (count boundary fixup)&#45;&gt;[root] aws_network_acl_rule.SimpleNACLEgressHTTP</title>
<path fill="none" stroke="#000000" d="M961.8738,-362.6425C1032.5694,-351.8125 1127.8387,-337.2181 1203.9661,-325.556"/>
<polygon fill="#000000" stroke="#000000" points="1204.7456,-328.9775 1214.1003,-324.0036 1203.6856,-322.0583 1204.7456,-328.9775"/>
</g>
<!-- [root] meta.count&#45;boundary (count boundary fixup)&#45;&gt;[root] aws_network_acl_rule.SimpleNACLEgressHTTPS -->
<g id="edge13" class="edge">
<title>[root] meta.count&#45;boundary (count boundary fixup)&#45;&gt;[root] aws_network_acl_rule.SimpleNACLEgressHTTPS</title>
<path fill="none" stroke="#000000" d="M1000.016,-365.515C1020.9911,-363.6493 1042.3795,-361.7618 1062.6235,-360 1248.6812,-343.8076 1297.8552,-342.5951 1487.5016,-324.0966"/>
<polygon fill="#000000" stroke="#000000" points="1487.9111,-327.5734 1497.5226,-323.1159 1487.2292,-320.6067 1487.9111,-327.5734"/>
</g>
<!-- [root] meta.count&#45;boundary (count boundary fixup)&#45;&gt;[root] aws_network_acl_rule.SimpleNACLEgressTemp -->
<g id="edge14" class="edge">
<title>[root] meta.count&#45;boundary (count boundary fixup)&#45;&gt;[root] aws_network_acl_rule.SimpleNACLEgressTemp</title>
<path fill="none" stroke="#000000" d="M996.1711,-365.1789C1018.3595,-363.2865 1041.1275,-361.4792 1062.6235,-360 1391.2629,-337.386 1477.1452,-350.8083 1809.6757,-324.0409"/>
<polygon fill="#000000" stroke="#000000" points="1810.4067,-327.4932 1820.0909,-323.196 1809.8406,-320.5161 1810.4067,-327.4932"/>
</g>
<!-- [root] meta.count&#45;boundary (count boundary fixup)&#45;&gt;[root] aws_network_acl_rule.SimpleNACLIngressHTTP -->
<g id="edge15" class="edge">
<title>[root] meta.count&#45;boundary (count boundary fixup)&#45;&gt;[root] aws_network_acl_rule.SimpleNACLIngressHTTP</title>
<path fill="none" stroke="#000000" d="M760.04,-362.7307C688.0269,-351.9061 590.7787,-337.2885 513.0339,-325.6024"/>
<polygon fill="#000000" stroke="#000000" points="513.0934,-322.0721 502.6842,-324.0467 512.0528,-328.9943 513.0934,-322.0721"/>
</g>
<!-- [root] meta.count&#45;boundary (count boundary fixup)&#45;&gt;[root] aws_network_acl_rule.SimpleNACLIngressHTTPS -->
<g id="edge16" class="edge">
<title>[root] meta.count&#45;boundary (count boundary fixup)&#45;&gt;[root] aws_network_acl_rule.SimpleNACLIngressHTTPS</title>
<path fill="none" stroke="#000000" d="M822.5673,-360.2022C801.4578,-350.5827 775.1846,-338.6101 752.7041,-328.3658"/>
<polygon fill="#000000" stroke="#000000" points="753.879,-325.055 743.3279,-324.0931 750.9762,-331.4248 753.879,-325.055"/>
</g>
<!-- [root] meta.count&#45;boundary (count boundary fixup)&#45;&gt;[root] aws_network_acl_rule.SimpleNACLIngressSSH -->
<g id="edge17" class="edge">
<title>[root] meta.count&#45;boundary (count boundary fixup)&#45;&gt;[root] aws_network_acl_rule.SimpleNACLIngressSSH</title>
<path fill="none" stroke="#000000" d="M900.9269,-360.2022C922.2649,-350.5397 948.8458,-338.5031 971.5351,-328.2287"/>
<polygon fill="#000000" stroke="#000000" points="973.0021,-331.4066 980.6679,-324.0931 970.1145,-325.0299 973.0021,-331.4066"/>
</g>
<!-- [root] meta.count&#45;boundary (count boundary fixup)&#45;&gt;[root] aws_route_table.SimpleRouteTable -->
<g id="edge18" class="edge">
<title>[root] meta.count&#45;boundary (count boundary fixup)&#45;&gt;[root] aws_route_table.SimpleRouteTable</title>
<path fill="none" stroke="#000000" d="M703.9988,-367.7218C577.2131,-358.7333 394.2833,-344.146 225.4108,-324.1744"/>
<polygon fill="#000000" stroke="#000000" points="225.6798,-320.6818 215.3361,-322.9744 224.8519,-327.6326 225.6798,-320.6818"/>
</g>
<!-- [root] provider.aws (close) -->
<g id="node14" class="node">
<title>[root] provider.aws (close)</title>
<ellipse fill="none" stroke="#000000" cx="1175.6235" cy="-378" rx="104.3276" ry="18"/>
<text text-anchor="middle" x="1175.6235" y="-373.8" font-family="Times,serif" font-size="14.00" fill="#000000">[root] provider.aws (close)</text>
</g>
<!-- [root] provider.aws (close)&#45;&gt;[root] aws_network_acl_rule.SimpleNACLEgressHTTP -->
<g id="edge19" class="edge">
<title>[root] provider.aws (close)&#45;&gt;[root] aws_network_acl_rule.SimpleNACLEgressHTTP</title>
<path fill="none" stroke="#000000" d="M1212.1986,-361.1192C1233.4111,-351.3288 1260.382,-338.8807 1283.3233,-328.2924"/>
<polygon fill="#000000" stroke="#000000" points="1284.9378,-331.4021 1292.5506,-324.0336 1282.0043,-325.0464 1284.9378,-331.4021"/>
</g>
<!-- [root] provider.aws (close)&#45;&gt;[root] aws_network_acl_rule.SimpleNACLEgressHTTPS -->
<g id="edge20" class="edge">
<title>[root] provider.aws (close)&#45;&gt;[root] aws_network_acl_rule.SimpleNACLEgressHTTPS</title>
<path fill="none" stroke="#000000" d="M1253.895,-366.1107C1326.3604,-355.1033 1435.4669,-338.5301 1520.7749,-325.5719"/>
<polygon fill="#000000" stroke="#000000" points="1521.4313,-329.0125 1530.7923,-324.0503 1520.38,-322.0919 1521.4313,-329.0125"/>
</g>
<!-- [root] provider.aws (close)&#45;&gt;[root] aws_network_acl_rule.SimpleNACLEgressTemp -->
<g id="edge21" class="edge">
<title>[root] provider.aws (close)&#45;&gt;[root] aws_network_acl_rule.SimpleNACLEgressTemp</title>
<path fill="none" stroke="#000000" d="M1271.1825,-370.7732C1393.457,-361.3232 1612.0714,-343.7463 1810.0672,-324.0389"/>
<polygon fill="#000000" stroke="#000000" points="1810.4741,-327.5157 1820.0766,-323.039 1809.7782,-320.5504 1810.4741,-327.5157"/>
</g>
<!-- [root] provider.aws (close)&#45;&gt;[root] aws_network_acl_rule.SimpleNACLIngressHTTP -->
<g id="edge22" class="edge">
<title>[root] provider.aws (close)&#45;&gt;[root] aws_network_acl_rule.SimpleNACLIngressHTTP</title>
<path fill="none" stroke="#000000" d="M1101.5966,-365.2405C1088.6343,-363.2832 1075.2557,-361.4388 1062.6235,-360 834.8382,-334.0554 773.9247,-344.8491 542.7883,-324.1741"/>
<polygon fill="#000000" stroke="#000000" points="542.9968,-320.6787 532.7221,-323.2635 542.3661,-327.6502 542.9968,-320.6787"/>
</g>
<!-- [root] provider.aws (close)&#45;&gt;[root] aws_network_acl_rule.SimpleNACLIngressHTTPS -->
<g id="edge23" class="edge">
<title>[root] provider.aws (close)&#45;&gt;[root] aws_network_acl_rule.SimpleNACLIngressHTTPS</title>
<path fill="none" stroke="#000000" d="M1099.0493,-365.7104C1086.8672,-363.7817 1074.4024,-361.824 1062.6235,-360 987.3777,-348.348 903.2017,-335.6677 835.281,-325.5245"/>
<polygon fill="#000000" stroke="#000000" points="835.7881,-322.0615 825.3809,-324.0468 834.7546,-328.9848 835.7881,-322.0615"/>
</g>
<!-- [root] provider.aws (close)&#45;&gt;[root] aws_network_acl_rule.SimpleNACLIngressSSH -->
<g id="edge24" class="edge">
<title>[root] provider.aws (close)&#45;&gt;[root] aws_network_acl_rule.SimpleNACLIngressSSH</title>
<path fill="none" stroke="#000000" d="M1139.2829,-361.1192C1118.2064,-351.3288 1091.4084,-338.8807 1068.6141,-328.2924"/>
<polygon fill="#000000" stroke="#000000" points="1069.9898,-325.0723 1059.446,-324.0336 1067.0407,-331.4208 1069.9898,-325.0723"/>
</g>
<!-- [root] provider.aws (close)&#45;&gt;[root] aws_route_table.SimpleRouteTable -->
<g id="edge25" class="edge">
<title>[root] provider.aws (close)&#45;&gt;[root] aws_route_table.SimpleRouteTable</title>
<path fill="none" stroke="#000000" d="M1102.5372,-365.0991C1089.2887,-363.1198 1075.5698,-361.3045 1062.6235,-360 694.6264,-322.9197 596.8104,-359.9897 225.5409,-324.1264"/>
<polygon fill="#000000" stroke="#000000" points="225.6124,-320.6168 215.3193,-323.1274 224.9314,-327.5836 225.6124,-320.6168"/>
</g>
<!-- [root] root -->
<g id="node15" class="node">
<title>[root] root</title>
<ellipse fill="none" stroke="#000000" cx="1018.6235" cy="-450" rx="46.8976" ry="18"/>
<text text-anchor="middle" x="1018.6235" y="-445.8" font-family="Times,serif" font-size="14.00" fill="#000000">[root] root</text>
</g>
<!-- [root] root&#45;&gt;[root] meta.count&#45;boundary (count boundary fixup) -->
<g id="edge26" class="edge">
<title>[root] root&#45;&gt;[root] meta.count&#45;boundary (count boundary fixup)</title>
<path fill="none" stroke="#000000" d="M988.3524,-436.1177C965.9728,-425.8544 935.0547,-411.6754 909.3602,-399.892"/>
<polygon fill="#000000" stroke="#000000" points="910.7044,-396.658 900.1557,-395.6708 907.7864,-403.0208 910.7044,-396.658"/>
</g>
<!-- [root] root&#45;&gt;[root] provider.aws (close) -->
<g id="edge27" class="edge">
<title>[root] root&#45;&gt;[root] provider.aws (close)</title>
<path fill="none" stroke="#000000" d="M1048.8947,-436.1177C1071.7505,-425.6361 1103.5119,-411.0703 1129.5197,-399.1432"/>
<polygon fill="#000000" stroke="#000000" points="1131.1833,-402.2308 1138.814,-394.8808 1128.2653,-395.868 1131.1833,-402.2308"/>
</g>
</g>
</svg>
